<svg xmlns="http://www.w3.org/2000/svg" viewBox="0 0 1800 600" width="1800" height="600" role="img" aria-label="Обложка курса — место под фотографию">
<rect width="1800" height="600" fill="#E3E1DA"/>
<rect x="27.5" y="27.5" width="1745" height="545" fill="none" stroke="#C9C7BF" stroke-width="1" stroke-dasharray="7 7"/>
<g transform="translate(900.0 264.0) scale(2.308)"><g stroke="#5C6B4E" stroke-width="1.4" fill="none" stroke-linecap="round"><path d="M0 34 L0 -30"/><path d="M0 -6 C -16 -10 -22 -22 -20 -33 C -8 -30 -2 -19 0 -8"/><path d="M0 -16 C 16 -20 22 -32 20 -43 C 8 -40 2 -29 0 -18"/><path d="M0 12 C -14 8 -19 -2 -17 -12 C -6 -9 -1 0 0 10"/></g><circle cx="0" cy="-36" r="7" fill="none" stroke="#9E2B20" stroke-width="1.4"/></g>
<text x="900.0" y="427.5" text-anchor="middle" font-family="ui-monospace,Menlo,Consolas,monospace" font-size="16" letter-spacing="2.6" fill="#9E2B20">ФОТО 01</text>
<text x="900.0" y="462.7" text-anchor="middle" font-family="system-ui,-apple-system,Segoe UI,sans-serif" font-weight="700" font-size="22" fill="#17191A">Обложка курса</text>
<text x="900.0" y="494.5" text-anchor="middle" font-family="ui-monospace,Menlo,Consolas,monospace" font-size="13" fill="#67695F">Горизонтальный кадр: интерьерная композиция в жилом пространстве, общий план</text>
<text x="37" y="561" font-family="ui-monospace,Menlo,Consolas,monospace" font-size="13" letter-spacing="1.6" fill="#67695F">1800×600</text>
<text x="1763" y="561" text-anchor="end" font-family="ui-monospace,Menlo,Consolas,monospace" font-size="13" letter-spacing="1.6" fill="#67695F">ELEMENT CONCEPT</text>
</svg>
